<?xml version="1.0" encoding="iso-8859-1"?>
<!-- Uploaded to: SVG Repo, www.svgrepo.com, Generator: SVG Repo Mixer Tools -->
<svg height="800px" width="800px" version="1.1" id="Layer_1" xmlns="http://www.w3.org/2000/svg" xmlns:xlink="http://www.w3.org/1999/xlink" 
	 viewBox="0 0 462.073 462.073" xml:space="preserve">
<g transform="translate(0 -540.36)">
	<path style="fill:#FFE3A7;" d="M312.342,589.376c-0.526,0.01-1.058,0.037-1.594,0.098l-57.791,6.531
		c-1.249,0.141-2.457,0.419-3.598,0.826c-2.851,0.556-5.393,1.951-7.248,4.184l-72.561,87.32c-5.025,6.047-3.029,15.903,4.477,22.1
		l28.094,23.193h75.98l50.715-61.031c1.855-2.233,2.741-4.993,2.758-7.889c0.189-1.193,0.256-2.415,0.162-3.664l-4.34-57.826
		c-0.322-4.289-2.338-7.956-5.346-10.439C319.419,590.605,316.022,589.335,312.342,589.376L312.342,589.376z M295.478,612.557
		c4.465-0.001,8.085,3.618,8.086,8.082c0,0.001,0,0.001,0,0.002c0,4.465-3.62,8.084-8.084,8.084c-0.001,0-0.001,0-0.002,0
		c-4.464-0.001-8.082-3.62-8.082-8.084C287.396,616.177,291.015,612.558,295.478,612.557z"/>
	<g shape-rendering="auto" image-rendering="auto" color-rendering="auto" color-interpolation="sRGB">
		<g>
			<path style="fill:#D9C18E;" d="M284.431,661.992c-1.514-1.333-3.719-1.525-5.44-0.474l-68.776,40.665
				c-2.211,1.255-2.985,4.065-1.73,6.276c1.255,2.211,4.065,2.985,6.276,1.729c0.047-0.027,0.093-0.054,0.139-0.082l68.776-40.665
				c2.206-1.263,2.971-4.076,1.707-6.282C285.132,662.721,284.811,662.326,284.431,661.992L284.431,661.992z"/>
			<path style="fill:#D9C18E;" d="M238.382,652.684c-1.263-0.964-2.73-1.693-4.351-2.106c-6.484-1.652-13.229,2.325-14.882,8.811
				c0,0.001,0,0.001,0,0.002c-1.556,6.106,2.121,12.316,8.116,14.294c0.258,0.122,0.527,0.22,0.803,0.292
				c0,0,0.001,0.001,0.001,0.001c6.484,1.652,13.184-2.157,14.811-8.54C244.12,660.573,242.17,655.575,238.382,652.684
				L238.382,652.684z M232.9,660.017c0.967,0.693,1.387,1.866,1.06,3.148c-0.322,1.264-1.869,2.331-3.609,1.893
				c-0.003-0.001-0.006-0.001-0.009-0.002c-1.745-0.445-2.595-2.127-2.272-3.393c0.436-1.709,1.945-2.61,3.689-2.165
				C232.195,659.609,232.578,659.786,232.9,660.017L232.9,660.017z"/>
			<path style="fill:#D9C18E;" d="M270.692,699.789c-1.203-0.92-2.6-1.617-4.142-2.01c-6.286-1.602-12.895,2.167-14.467,8.337
				c-1.602,6.287,2.357,12.916,8.642,14.519c0.311,0.079,0.63,0.125,0.951,0.137c5.87,0.961,11.794-2.854,13.315-8.819
				C276.17,707.324,274.302,702.55,270.692,699.789L270.692,699.789z M265.249,707.12c0.805,0.546,1.104,1.451,0.822,2.56
				c-0.486,1.909-1.558,2.419-3.071,2.034c-1.941-0.495-2.484-1.415-1.997-3.325c0.377-1.48,1.333-2.184,3.275-1.689
				C264.656,706.796,264.98,706.938,265.249,707.12L265.249,707.12z"/>
		</g>
		<g>
			<path style="fill:#D4A579;" d="M283.584,660.279c-1.514-1.333-3.719-1.525-5.44-0.474l-68.776,40.665
				c-2.211,1.255-2.986,4.064-1.732,6.275c1.255,2.211,4.064,2.986,6.275,1.732c0.048-0.027,0.095-0.055,0.142-0.084l68.776-40.665
				c2.206-1.263,2.97-4.076,1.707-6.282C284.286,661.007,283.964,660.613,283.584,660.279L283.584,660.279z"/>
			<path style="fill:#D4A579;" d="M237.536,650.97c-1.263-0.964-2.73-1.693-4.351-2.106c-6.484-1.652-13.229,2.325-14.882,8.811
				c0,0,0,0,0,0c-1.556,6.106,2.121,12.316,8.116,14.294c0.258,0.122,0.527,0.22,0.803,0.292c6.484,1.652,13.184-2.157,14.811-8.54
				c1.24-4.865-0.71-9.862-4.498-12.754L237.536,650.97z M232.053,658.303c0.967,0.693,1.387,1.866,1.06,3.148
				c-0.322,1.263-1.869,2.331-3.609,1.893c-0.003,0-0.007,0-0.01,0c-1.745-0.445-2.595-2.127-2.272-3.393
				c0.436-1.709,1.945-2.61,3.689-2.165c0.436,0.111,0.819,0.288,1.141,0.519L232.053,658.303z"/>
			<path style="fill:#D4A579;" d="M269.845,698.075c-1.203-0.92-2.6-1.617-4.142-2.01c-6.286-1.602-12.895,2.167-14.467,8.337
				c-1.602,6.287,2.357,12.916,8.642,14.519c0.311,0.079,0.63,0.125,0.951,0.137c5.87,0.961,11.794-2.853,13.315-8.819
				C275.323,705.611,273.455,700.837,269.845,698.075L269.845,698.075z M264.402,705.407c0.805,0.546,1.104,1.451,0.822,2.56
				c-0.486,1.909-1.558,2.419-3.071,2.034c-1.941-0.495-2.483-1.415-1.997-3.325c0.377-1.48,1.333-2.184,3.275-1.689
				C263.809,705.082,264.134,705.225,264.402,705.407L264.402,705.407z"/>
			<path style="fill:#D4A579;" d="M304.816,600.438l-0.42,2.973c3.139,0.286,5.756,1.833,7.805,4.166l2.42-1.771
				C312.319,603.634,310.557,601.255,304.816,600.438z"/>
			<path style="fill:#D4A579;" d="M296.855,601.009l-7.57,0.855l0.336,2.98l7.57-0.854L296.855,601.009z"/>
			<path style="fill:#D4A579;" d="M281.715,602.719l-7.57,0.855l0.338,2.98l7.568-0.855L281.715,602.719z"/>
			<path style="fill:#D4A579;" d="M266.574,604.43l-7.568,0.855l0.336,2.98l7.57-0.855L266.574,604.43z"/>
			<path style="fill:#D4A579;" d="M251.357,606.194c-2.744,0.485-5.447,1.302-7.686,3.006l1.816,2.389
				c1.878-1.364,4.297-2.06,6.373-2.438L251.357,606.194z"/>
			<path style="fill:#D4A579;" d="M317.611,613.505l-2.98,0.326l0.568,7.57l2.992-0.225L317.611,613.505z"/>
			<path style="fill:#D4A579;" d="M238.398,615.143l-4.867,5.859l2.307,1.916l4.869-5.859L238.398,615.143z"/>
			<path style="fill:#D4A579;" d="M228.662,626.862l-4.869,5.857l2.307,1.918l4.869-5.859L228.662,626.862z"/>
			<path style="fill:#D4A579;" d="M318.762,628.774l-2.992,0.225l0.57,7.596l2.992-0.225L318.762,628.774z"/>
			<path style="fill:#D4A579;" d="M218.924,638.579l-4.869,5.859l2.307,1.918l4.869-5.859L218.924,638.579z"/>
			<path style="fill:#D4A579;" d="M319.902,643.968l-2.992,0.225l0.57,7.596l2.992-0.225L319.902,643.968z"/>
			<path style="fill:#D4A579;" d="M209.185,650.298l-4.869,5.859l2.309,1.918l4.869-5.859L209.185,650.298z"/>
			<path style="fill:#D4A579;" d="M321.043,659.161l-2.992,0.225c0.409,2.483,0.28,4.94,0.135,7.42l2.996,0.131
				C321.558,664.341,321.238,661.761,321.043,659.161z"/>
			<path style="fill:#D4A579;" d="M199.449,662.016l-4.869,5.859l2.307,1.918l4.869-5.859L199.449,662.016z"/>
			<path style="fill:#D4A579;" d="M315.668,672.798l-4.869,5.859l2.309,1.918l4.869-5.859L315.668,672.798z"/>
			<path style="fill:#D4A579;" d="M189.711,673.735l-4.869,5.859l2.307,1.916l4.869-5.859L189.711,673.735z"/>
			<path style="fill:#D4A579;" d="M305.93,684.516l-4.867,5.859l2.307,1.918l4.869-5.859L305.93,684.516z"/>
			<path style="fill:#D4A579;" d="M179.973,685.454c-1.955,2.247-2.733,4.983-2.875,7.9l2.996,0.145
				c-0.039-2.321,0.814-4.312,2.186-6.129L179.973,685.454z"/>
			<path style="fill:#D4A579;" d="M296.193,696.235l-4.869,5.859l2.307,1.916l4.869-5.857L296.193,696.235z"/>
			<path style="fill:#D4A579;" d="M181.973,699.932l-2.617,1.467c1.311,2.429,3.316,4.312,5.416,6.049l1.91-2.314
				C184.787,703.702,183.221,701.944,181.973,699.932z"/>
			<path style="fill:#D4A579;" d="M286.455,707.954l-4.869,5.857l2.307,1.918l4.869-5.859L286.455,707.954z"/>
			<path style="fill:#D4A579;" d="M192.557,709.987l-1.91,2.313l5.875,4.85l1.91-2.313L192.557,709.987z"/>
			<path style="fill:#D4A579;" d="M276.717,719.671l-4.869,5.859l2.307,1.918l4.869-5.859L276.717,719.671z"/>
			<path style="fill:#D4A579;" d="M204.305,719.686l-1.908,2.314l5.873,4.85l1.91-2.314L204.305,719.686z"/>
			<path style="fill:#D4A579;" d="M216.055,729.387l-1.91,2.313l2.336,1.928h4.711L216.055,729.387z"/>
			<path style="fill:#D4A579;" d="M266.978,731.389l-1.859,2.238h3.902l0.266-0.32L266.978,731.389z"/>
		</g>
		<path style="fill:#BABABA;" d="M295.435,610.973c-5.274,0.001-9.581,4.31-9.582,9.584c-0.001,5.275,4.307,9.583,9.582,9.584
			c5.276,0.001,9.587-4.308,9.586-9.584C305.021,615.281,300.711,610.972,295.435,610.973z M295.437,613.973
			c3.654,0,6.584,2.93,6.584,6.584c0,3.655-2.929,6.584-6.584,6.584c-3.654,0-6.584-2.93-6.584-6.584
			C288.854,616.903,291.784,613.973,295.437,613.973z"/>
	</g>
	<path style="fill:#AABD29;" d="M385.202,737.905l-296.408,0.561c-18.546,0.035-38.246,6.212-34.477,25.533L84.11,917.885
		c3.742,19.327,14.931,35.533,33.477,35.533h231.195c18.546,0,29.076-16.346,33.477-35.533l35.42-154.447
		C422.078,744.25,403.747,737.869,385.202,737.905z M124.534,798.752h97.18l-0.174,26.99h-97.006c-7.756,0-14-6.018-14-13.494
		C110.534,804.772,116.778,798.813,124.534,798.752z M250.36,798.752h97.18c7.756,0,14,6.02,14,13.496
		c0,7.476-6.244,13.555-14,13.494h-97.006L250.36,798.752z M132.448,842.748h89.092v26.988h-89.092
		c-7.206,0-13.008-6.018-13.008-13.494S125.242,842.748,132.448,842.748L132.448,842.748z M250.534,842.748h89.092
		c7.206,0,13.008,6.018,13.008,13.494s-5.802,13.494-13.008,13.494h-89.092V842.748z M144.916,886.741h76.623v26.99h-76.623
		c-6.338,0-11.441-6.02-11.441-13.496S138.578,886.741,144.916,886.741z M250.534,886.741h76.623
		c6.338,0,11.441,6.018,11.441,13.494s-5.103,13.496-11.441,13.496h-76.623V886.741z"/>
	<path style="fill:#919F2A;" d="M54.631,765.628l1.174,6.061h359.98l1.391-6.061C417.176,765.628,54.631,765.628,54.631,765.628z"/>
	<path style="fill:#2D272B;" d="M48.06,733.627h376c6.648,0,12,5.352,12,12v8c0,6.648-5.352,12-12,12h-376c-6.648,0-12-5.352-12-12
		v-8C36.06,738.979,41.412,733.627,48.06,733.627L48.06,733.627z"/>
	<g>
		<path id="SVGCleanerId_0" style="fill:#221D20;" d="M6.59,665.985c-2.298,0.117-4.513,1.863-5.742,4.498
			c-1.639,3.514-0.885,7.244,2.119,8.641c0,0,46.828,21.818,70.055,32.648c1.973,0.92,5.836,6.179,7.973,7.176l80.756,37.658
			c3.903,1.82,8.852-0.586,11.094-5.395l0.357-0.768c2.242-4.808,0.905-10.145-2.998-11.965l-80.756-37.656
			c-2.137-0.997-8.536-0.818-10.51-1.736C55.7,688.28,8.883,666.438,8.883,666.438C8.132,666.088,7.356,665.945,6.59,665.985z"/>
	</g>
	<path style="fill:#AABD29;" d="M3.477,670.041c-1.639,3.514-0.884,7.244,2.12,8.641c0,0,46.829,21.818,70.055,32.649
		c1.973,0.92,5.835,6.18,7.972,7.176l80.757,37.657c3.904,1.82,8.851-0.585,11.093-5.394l0.358-0.767
		c2.242-4.808,0.905-10.145-2.999-11.965L92.077,700.38c-2.137-0.997-8.535-0.817-10.509-1.735
		c-23.238-10.806-70.055-32.649-70.055-32.649C8.51,664.597,5.116,666.527,3.477,670.041L3.477,670.041z"/>
	<path style="fill:#4B4C4D;" d="M169.125,742.929c2.002,0.934,2.868,3.314,1.935,5.316c0,0,0,0,0,0
		c-0.934,2.002-3.314,2.868-5.316,1.935c-2.002-0.934-2.868-3.314-1.935-5.316C164.743,742.862,167.123,741.995,169.125,742.929
		L169.125,742.929z"/>
	<path style="fill:#38393A;" d="M168.595,744.604c1.124,0.524,1.61,1.86,1.086,2.984s-1.86,1.61-2.984,1.086h0
		c-1.124-0.524-1.61-1.86-1.086-2.984S167.471,744.08,168.595,744.604L168.595,744.604z"/>
	<path style="fill:#ECF0F1;" d="M168.384,744.519c1.124,0.524,1.61,1.86,1.086,2.984s-1.86,1.61-2.984,1.086h0
		c-1.124-0.524-1.61-1.86-1.086-2.984S167.26,743.995,168.384,744.519L168.384,744.519z"/>
	<path style="fill:#909090;" d="M167.895,745.567c0.545,0.254,0.781,0.902,0.527,1.448c-0.254,0.545-0.902,0.781-1.448,0.527
		c0,0,0,0,0,0c-0.545-0.254-0.781-0.902-0.527-1.448l0,0C166.702,745.549,167.35,745.313,167.895,745.567
		C167.895,745.567,167.895,745.567,167.895,745.567z"/>
	<g transform="matrix(-1 0 0 1 512 0)">
		<g>
			<path id="SVGCleanerId_0_1_" style="fill:#221D20;" d="M455.483,665.985c2.298,0.117,4.513,1.863,5.742,4.498
				c1.639,3.514,0.885,7.244-2.119,8.641c0,0-46.828,21.818-70.055,32.648c-1.973,0.92-5.836,6.179-7.973,7.176l-80.756,37.658
				c-3.903,1.82-8.852-0.586-11.094-5.395l-0.357-0.768c-2.242-4.808-0.905-10.145,2.998-11.965l80.756-37.656
				c2.137-0.997,8.536-0.818,10.51-1.736c23.238-10.806,70.055-32.648,70.055-32.648
				C453.941,666.088,454.717,665.945,455.483,665.985z"/>
		</g>
	</g>
	<path style="fill:#AABD29;" d="M458.596,670.041c1.639,3.514,0.884,7.244-2.12,8.641c0,0-46.829,21.818-70.055,32.649
		c-1.973,0.92-5.835,6.18-7.972,7.176l-80.757,37.657c-3.904,1.82-8.851-0.585-11.093-5.394l-0.358-0.767
		c-2.242-4.808-0.905-10.145,2.999-11.965l80.757-37.657c2.137-0.997,8.535-0.817,10.509-1.735
		c23.238-10.806,70.055-32.649,70.055-32.649C453.563,664.597,456.957,666.527,458.596,670.041L458.596,670.041z"/>
	<path style="fill:#4B4C4D;" d="M292.948,742.929c-2.002,0.934-2.868,3.314-1.935,5.316c0.934,2.002,3.314,2.868,5.316,1.935
		c2.002-0.934,2.868-3.314,1.935-5.316C297.33,742.862,294.95,741.995,292.948,742.929z"/>
	<path style="fill:#38393A;" d="M293.478,744.604c-1.124,0.524-1.61,1.86-1.086,2.984c0.524,1.124,1.86,1.61,2.984,1.086l0,0
		c1.124-0.524,1.61-1.86,1.086-2.984S294.602,744.08,293.478,744.604L293.478,744.604z"/>
	<path style="fill:#ECF0F1;" d="M293.689,744.519c-1.124,0.524-1.61,1.86-1.086,2.984s1.86,1.61,2.984,1.086h0
		c1.124-0.524,1.61-1.86,1.086-2.984S294.813,743.995,293.689,744.519L293.689,744.519z"/>
	<path style="fill:#909090;" d="M294.178,745.567c-0.545,0.254-0.781,0.902-0.527,1.448s0.902,0.781,1.448,0.527l0,0
		c0.545-0.254,0.781-0.902,0.527-1.448l0,0C295.371,745.549,294.723,745.313,294.178,745.567L294.178,745.567L294.178,745.567z"/>
</g>
</svg>